<svg width="48" height="25" viewBox="0 0 48 25" fill="none" xmlns="http://www.w3.org/2000/svg">
<path d="M23.9996 24.3331C23.2208 24.3346 22.466 24.0634 21.8663 23.5664L1.86629 6.89976C1.18556 6.33396 0.757481 5.52092 0.676215 4.6395C0.594949 3.75808 0.867155 2.88047 1.43295 2.19975C1.99875 1.51903 2.81179 1.09095 3.69321 1.00968C4.57463 0.928414 5.45223 1.20062 6.13295 1.76641L23.9996 16.6998L41.8663 2.29975C42.2073 2.02286 42.5996 1.81609 43.0207 1.69132C43.4419 1.56654 43.8835 1.52623 44.3203 1.57269C44.757 1.61916 45.1803 1.75148 45.5658 1.96206C45.9512 2.17264 46.2912 2.45732 46.5663 2.79975C46.8716 3.14248 47.1028 3.54457 47.2454 3.98082C47.3881 4.41706 47.4391 4.87807 47.3953 5.33495C47.3515 5.79182 47.2138 6.23473 46.9908 6.63592C46.7679 7.03711 46.4645 7.38793 46.0996 7.66642L26.0996 23.7664C25.4827 24.1848 24.7433 24.3843 23.9996 24.3331Z" fill="#FF9900"/>
</svg>
