<svg width="48" height="25" viewBox="0 0 48 25" fill="none" xmlns="http://www.w3.org/2000/svg">
<path d="M24.0004 0.666605C24.7792 0.665083 25.534 0.936333 26.1337 1.43327L46.1337 18.0999C46.8144 18.6657 47.2425 19.4788 47.3238 20.3602C47.4051 21.2416 47.1328 22.1192 46.567 22.7999C46.0013 23.4807 45.1882 23.9087 44.3068 23.99C43.4254 24.0713 42.5478 23.7991 41.867 23.2333L24.0004 8.29994L6.13368 22.6999C5.79272 22.9768 5.4004 23.1836 4.97927 23.3084C4.55814 23.4331 4.1165 23.4735 3.67974 23.427C3.24298 23.3805 2.81971 23.2482 2.43425 23.0376C2.04879 22.827 1.70876 22.5424 1.43368 22.1999C1.12841 21.8572 0.897217 21.4551 0.754574 21.0189C0.611931 20.5826 0.560924 20.1216 0.604732 19.6647C0.648544 19.2079 0.786228 18.765 1.00917 18.3638C1.23212 17.9626 1.53551 17.6118 1.90035 17.3333L21.9004 1.23327C22.5173 0.814886 23.2567 0.61537 24.0004 0.666605Z" fill="#FF9900"/>
</svg>
