<svg width="38" height="77" viewBox="0 0 38 77" fill="none" xmlns="http://www.w3.org/2000/svg">
<path d="M37.333 39.0004C37.3354 40.266 36.9116 41.4925 36.1351 42.467L10.0934 74.967C9.20939 76.0732 7.93901 76.7689 6.56179 76.9009C5.18457 77.033 3.81331 76.5906 2.74968 75.6712C1.68606 74.7518 1.01718 73.4306 0.890203 71.9983C0.763225 70.566 1.18855 69.1399 2.0726 68.0337L25.4059 39.0004L2.90594 9.967C2.4733 9.41294 2.15022 8.77542 1.95526 8.09109C1.7603 7.40675 1.69732 6.68909 1.76992 5.97935C1.84252 5.26962 2.04927 4.58179 2.3783 3.95543C2.70733 3.32906 3.15215 2.7765 3.68718 2.3295C4.22271 1.83344 4.85098 1.45775 5.53261 1.22595C6.21424 0.994156 6.93456 0.91127 7.64843 0.98246C8.3623 1.05365 9.05434 1.27739 9.6812 1.63968C10.3081 2.00196 10.8562 2.49498 11.2914 3.08784L36.4476 35.5879C37.1013 36.5904 37.4131 37.7919 37.333 39.0004Z" fill="#FF9900"/>
</svg>
