<svg width="38" height="77" viewBox="0 0 38 77" fill="none" xmlns="http://www.w3.org/2000/svg">
<path d="M0.666998 39.0004C0.664621 40.266 1.08845 41.4925 1.86491 42.467L27.9066 74.967C28.7906 76.0732 30.061 76.7689 31.4382 76.9009C32.8154 77.033 34.1867 76.5906 35.2503 75.6712C36.3139 74.7518 36.9828 73.4306 37.1098 71.9983C37.2368 70.566 36.8115 69.1399 35.9274 68.0337L12.5941 39.0004L35.0941 9.967C35.5267 9.41294 35.8498 8.77542 36.0447 8.09109C36.2397 7.40675 36.3027 6.68909 36.2301 5.97935C36.1575 5.26962 35.9507 4.58179 35.6217 3.95543C35.2927 3.32906 34.8479 2.7765 34.3128 2.3295C33.7773 1.83344 33.149 1.45775 32.4674 1.22595C31.7858 0.994156 31.0654 0.91127 30.3516 0.98246C29.6377 1.05365 28.9457 1.27739 28.3188 1.63968C27.6919 2.00196 27.1438 2.49498 26.7087 3.08784L1.55242 35.5879C0.898687 36.5904 0.586942 37.7919 0.666998 39.0004Z" fill="#FF9900"/>
</svg>
