<svg width="21" height="16" viewBox="0 0 21 16" fill="none" xmlns="http://www.w3.org/2000/svg">
<path d="M19.8917 14H1.10833C0.496218 14 0 14.4253 0 14.95V15.05C0 15.5747 0.496218 16 1.10833 16H19.8917C20.5038 16 21 15.5747 21 15.05V14.95C21 14.4253 20.5038 14 19.8917 14Z" fill="#FF9900"/>
<path d="M19.8917 0H1.10833C0.496218 0 0 0.425329 0 0.95V1.05C0 1.57467 0.496218 2 1.10833 2H19.8917C20.5038 2 21 1.57467 21 1.05V0.95C21 0.425329 20.5038 0 19.8917 0Z" fill="#FF9900"/>
<path d="M19.8917 7H1.10833C0.496218 7 0 7.42533 0 7.95V8.05C0 8.57467 0.496218 9 1.10833 9H19.8917C20.5038 9 21 8.57467 21 8.05V7.95C21 7.42533 20.5038 7 19.8917 7Z" fill="#FF9900"/>
</svg>
