<svg width="35" height="35" viewBox="0 0 35 35" fill="none" xmlns="http://www.w3.org/2000/svg">
<path d="M22.2359 23.4938L24.6859 21.0438C25.0158 20.7179 25.4333 20.4948 25.8877 20.4016C26.342 20.3084 26.8136 20.3491 27.2452 20.5188L30.2312 21.7109C30.6674 21.888 31.0414 22.1902 31.3061 22.5795C31.5708 22.9688 31.7144 23.4277 31.7187 23.8984V29.3672C31.7161 29.6874 31.6488 30.0038 31.5208 30.2973C31.3927 30.5909 31.2066 30.8554 30.9736 31.0752C30.7406 31.2949 30.4656 31.4651 30.1651 31.5757C29.8645 31.6864 29.5447 31.735 29.2249 31.7188C8.30148 30.4172 4.07961 12.6984 3.28117 5.9172C3.2441 5.58419 3.27797 5.24711 3.38053 4.92813C3.4831 4.60915 3.65204 4.31551 3.87624 4.06651C4.10044 3.81751 4.37483 3.6188 4.68134 3.48346C4.98785 3.34812 5.31955 3.27921 5.65461 3.28126H10.9374C11.4088 3.28266 11.8691 3.42506 12.2589 3.69014C12.6487 3.95522 12.9503 4.33087 13.1249 4.76876L14.3171 7.7547C14.4924 8.18462 14.5371 8.65665 14.4457 9.11184C14.3542 9.56702 14.1307 9.98518 13.803 10.3141L11.353 12.7641C11.353 12.7641 12.764 22.3125 22.2359 23.4938Z" fill="#9BDAFC"/>
</svg>
